<svg xmlns="http://www.w3.org/2000/svg" viewBox="0 0 512 512">
  <defs><linearGradient id="g" x1="0" y1="0" x2="1" y2="1"><stop stop-color="#3b82f6"/><stop offset="1" stop-color="#1546b7"/></linearGradient></defs>
  <rect width="512" height="512" rx="112" fill="#101d35"/><path d="M86 155c0-25 20-45 45-45h221c25 0 45 20 45 45v164H86V155Z" fill="url(#g)"/>
  <path d="M397 219h39l52 70v30h-91V219Z" fill="#60a5fa"/><path d="M86 319h402v45c0 17-14 31-31 31H117c-17 0-31-14-31-31v-45Z" fill="#eaf1ff"/>
  <circle cx="166" cy="382" r="43" fill="#0b1426"/><circle cx="166" cy="382" r="18" fill="#94a3b8"/><circle cx="408" cy="382" r="43" fill="#0b1426"/><circle cx="408" cy="382" r="18" fill="#94a3b8"/>
  <path d="M133 175h206v73H133z" fill="#dbeafe" opacity=".95"/><path d="m208 188 27 23 54-56" fill="none" stroke="#15803d" stroke-width="22" stroke-linecap="round" stroke-linejoin="round"/>
</svg>
